<svg width="740" height="782" viewBox="0 0 740 782" fill="none" xmlns="http://www.w3.org/2000/svg">
<g clip-path="url(#clip0_1518_2)">
<path d="M334.333 0.599928C322.2 1.26659 282.067 7.53326 266.067 11.1333C248.2 15.1333 228.6 20.8666 213.267 26.4666C207.133 28.7333 201.267 30.1999 200.2 29.7999C199.133 29.3999 198.467 29.5333 198.867 30.0666C199.267 30.7333 194.867 33.2666 189.267 35.6666C168.067 44.8666 141.8 58.5999 123.8 69.7999C104.067 82.0666 89.9332 92.1999 89.2665 94.3333C88.7332 95.7999 97.7999 108.867 108.733 122.6L115.933 131.533L121.133 128.733C123.933 127.267 126.333 125.667 126.333 125.133C126.333 123.4 151 107.533 168.333 97.9333C213.133 73.1333 258.6 57.9333 311 50.1999C335 46.5999 383.4 45.2666 405.8 47.6666C484.067 55.6666 549.933 80.4666 612.333 125.533L623 133.267L627.533 128.067C629.933 125.267 633.4 120.867 635.133 118.333C636.867 115.8 641 109.8 644.467 105L650.6 96.4666L646.2 92.5999C639.533 86.9999 623.667 76.1999 607.667 66.5999C566.333 41.6666 515.8 21.2666 471.4 11.5333C426.2 1.79993 378.6 -2.06674 334.333 0.599928Z" fill="#D80027"/>
<path d="M46.7339 23.9324C42.8673 31.3991 31.6673 64.7325 25.5339 86.9991C22.3339 98.7325 18.4673 112.732 17.0006 117.932C15.5339 123.266 14.3339 128.732 14.3339 130.199C14.3339 131.666 13.1339 138.732 11.8006 145.932C9.13392 159.399 4.46725 194.066 3.00059 211.666C2.60059 217.132 1.93392 224.999 1.53392 228.999C0.333919 242.866 0.867252 316.732 2.33392 338.466C3.13392 350.466 5.40059 371.666 7.13392 385.666C9.00059 399.532 10.7339 412.732 11.0006 414.999C11.2673 417.132 12.0673 421.666 12.8673 424.999C13.5339 428.332 15.8006 439.132 17.6673 448.999C21.4006 467.932 26.0673 487.932 30.2006 502.332C41.6673 541.932 50.6006 567.932 61.8006 594.466C65.1339 602.466 67.5339 609.932 67.1339 610.999C66.4673 612.732 60.7339 612.999 27.5339 612.999C6.06725 612.999 -11.1327 613.266 -10.8661 613.532C-10.5994 613.799 6.73392 614.466 27.6673 614.866C52.3339 615.532 66.7339 616.466 68.7339 617.399C71.0006 618.466 75.9339 626.999 84.8673 644.332C96.8673 667.932 109.534 690.066 118.467 703.266C123.134 709.932 123.267 711.266 119.401 712.066C117.134 712.466 117.401 712.732 120.601 712.866C124.201 712.999 125.801 714.332 131.267 721.799C146.067 742.066 153.267 750.599 154.601 749.266C155.401 748.466 154.067 742.866 150.467 733.132C147.401 724.999 145.001 717.399 145.001 716.332C145.001 714.999 146.334 714.332 148.867 714.332C151.134 714.332 153.267 713.666 153.801 712.732C154.467 711.666 153.267 711.399 149.534 711.932C144.867 712.599 144.067 712.332 142.601 709.132C138.734 701.266 119.667 626.466 119.667 619.532C119.667 617.266 120.867 616.999 133.401 616.732C140.867 616.599 149.667 616.332 153.001 616.199C156.334 616.199 164.334 615.932 170.734 615.799C178.201 615.799 182.201 615.132 181.667 614.332C181.134 613.532 169.001 612.999 149.667 612.999H118.334L117.534 609.266C117.134 607.266 116.467 604.732 116.201 603.666C115.001 599.132 108.601 559.799 105.001 534.999C100.734 505.799 95.2673 456.199 93.0006 426.999C91.2673 404.866 89.8006 320.066 91.1339 315.132C91.9339 311.799 92.3339 311.532 98.2006 312.332C114.601 314.599 148.067 324.999 170.334 334.866C198.467 347.399 228.734 364.466 263.001 387.132C279.667 398.066 289.934 405.399 317.667 426.066C322.067 429.399 334.201 439.399 344.734 448.199C355.267 457.132 365.401 465.399 367.267 466.866L370.467 469.399L375.401 464.732C393.401 447.799 438.867 413.132 472.334 390.732C499.001 372.866 525.801 357.266 549.667 345.666C574.734 333.266 602.467 321.799 612.467 319.666C616.067 318.866 622.334 317.132 626.334 315.666C630.467 314.332 637.401 312.732 641.801 312.332L649.934 311.399L650.201 341.799C650.867 416.732 639.534 530.866 624.067 603.666C623.001 609.132 621.534 616.599 620.867 620.332C618.467 635.399 605.667 686.999 600.601 702.332C597.134 712.466 596.867 712.599 577.801 712.866C561.934 712.999 564.201 714.599 581.267 715.266C588.734 715.532 595.134 715.932 595.401 716.332C596.201 717.132 594.734 721.532 589.134 736.332C584.867 747.399 584.601 752.066 588.334 748.999C589.534 748.066 595.134 740.866 600.867 733.132C606.601 725.399 612.334 718.199 613.534 717.132C615.001 715.932 618.867 715.532 626.601 715.666C643.534 716.332 646.334 715.932 646.334 713.532C646.334 711.666 644.467 711.532 632.334 712.066C624.601 712.466 618.067 712.332 617.667 711.799C617.401 711.266 620.201 706.066 623.934 700.332C639.534 676.199 666.867 625.399 673.001 608.999C674.067 606.466 676.067 601.266 677.667 597.666C679.267 593.932 681.534 588.599 682.734 585.666C689.001 570.332 703.267 528.866 707.134 514.332C713.801 489.932 719.934 464.332 723.534 446.332C725.801 434.999 728.201 422.599 729.001 418.999C730.734 410.066 733.801 385.932 736.334 361.666C741.667 310.066 741.667 244.066 736.334 198.332C734.601 182.599 731.801 162.866 730.334 154.599C728.867 146.332 727.134 136.199 726.467 131.932C723.801 114.466 710.067 66.0658 701.667 44.3325C699.667 39.1324 697.401 32.8658 696.467 30.3324C695.667 27.7991 694.201 24.3324 693.267 22.5991C690.734 18.1991 688.201 20.7324 687.001 28.7324C684.201 47.7991 666.734 80.3325 640.467 115.666C622.067 140.199 614.601 149.132 592.601 172.332C574.201 191.799 563.267 202.199 524.334 237.799C482.867 275.666 418.867 342.466 383.801 384.599C376.867 392.866 370.867 399.666 370.334 399.666C369.801 399.666 366.734 396.332 363.667 392.066C357.534 383.932 355.267 381.532 323.934 346.332C280.201 297.666 252.067 269.666 184.334 208.066C128.067 156.732 75.9339 88.9991 59.0006 45.2658C56.3339 38.3324 54.3339 31.7991 54.4673 30.5991C54.6006 29.2658 54.3339 27.1324 53.8006 25.6658C53.1339 24.1991 52.4673 22.1991 52.2006 21.2658C51.4006 18.4658 49.1339 19.5324 46.7339 23.9324Z" fill="#D80027"/>
<path d="M136.334 26.2004C126.334 27.4004 132.334 29.1337 145.534 28.8671C156.867 28.7337 169.801 26.8671 163.667 26.3337C154.601 25.5337 142.334 25.5337 136.334 26.2004Z" fill="#D80027"/>
<path d="M72.3335 27.6666C70.2001 28.6 70.6001 28.8666 74.7335 28.8666C77.4001 29 79.6668 28.3333 79.6668 27.6666C79.6668 26.0666 76.0668 26.0666 72.3335 27.6666Z" fill="#D80027"/>
<path d="M85.666 27.6667C85.266 28.3333 85.7993 29 86.866 29C88.066 29 88.9993 28.3333 88.9993 27.6667C88.9993 26.8667 88.466 26.3333 87.7993 26.3333C86.9993 26.3333 86.066 26.8667 85.666 27.6667Z" fill="#D80027"/>
<path d="M216.733 123.533C200.467 124.6 198.6 125.933 214.067 125.667C232.2 125.4 234.6 125.133 233.667 123.667C233.267 122.867 232.067 122.467 231.267 122.6C230.333 122.733 223.8 123.133 216.733 123.533Z" fill="#D80027"/>
<path d="M145 125C135.8 125.4 130.733 125.933 133.666 126.066C151 127.266 160.2 127.266 170.333 126.333C181.266 125.4 181.4 125.4 173.4 125.133C168.866 125.133 164.466 124.866 163.4 124.6C162.466 124.466 154.2 124.6 145 125Z" fill="#D80027"/>
<path d="M188.066 125.933C189.266 126.199 191.133 126.199 192.066 125.933C192.866 125.533 191.933 125.266 189.666 125.266C187.533 125.266 186.733 125.533 188.066 125.933Z" fill="#D80027"/>
<path d="M728.733 125.933C729.533 126.199 731.133 126.199 732.067 125.933C732.867 125.533 732.2 125.266 730.333 125.266C728.467 125.266 727.8 125.533 728.733 125.933Z" fill="#D80027"/>
<path d="M363.666 223.667C364.733 224.333 366.866 225 368.333 225C369.8 225 371.933 224.333 373 223.667C374.466 222.733 373.133 222.333 368.333 222.333C363.533 222.333 362.2 222.733 363.666 223.667Z" fill="#D80027"/>
<path d="M98.7324 417.933C100.732 418.199 103.666 418.199 105.399 417.933C106.999 417.666 105.399 417.399 101.666 417.399C98.0658 417.399 96.5991 417.666 98.7324 417.933Z" fill="#D80027"/>
<path d="M140.733 417.933C141.533 418.199 143.133 418.199 144.067 417.933C144.867 417.533 144.2 417.266 142.333 417.266C140.467 417.266 139.8 417.533 140.733 417.933Z" fill="#D80027"/>
<path d="M182.866 418.599C182.466 419.133 186.066 419.666 190.866 419.666C196.066 419.666 199.666 419.133 199.666 418.333C199.666 416.599 183.933 416.866 182.866 418.599Z" fill="#D80027"/>
<path d="M213 515.533C213 516.2 213.667 517.266 214.333 517.666C215.133 518.066 215.667 517.933 215.667 517.133C215.667 516.466 215.133 515.4 214.333 515C213.667 514.6 213 514.733 213 515.533Z" fill="#D80027"/>
<path d="M228.6 516.466C227 518.066 229 519.399 231.667 518.732C233.134 518.332 233.934 517.532 233.534 516.866C232.734 515.532 229.8 515.266 228.6 516.466Z" fill="#D80027"/>
<path d="M473.666 516.999C470.199 517.933 470.466 518.066 476.333 518.199C481.133 518.199 482.466 517.933 480.999 516.999C479.933 516.333 478.733 515.799 478.333 515.799C477.933 515.933 475.933 516.466 473.666 516.999Z" fill="#D80027"/>
<path d="M505.399 517.267C510.333 518.2 513.666 518.2 514.466 517.4C515.266 516.6 512.333 516.067 506.733 516.067L497.666 515.933L505.399 517.267Z" fill="#D80027"/>
<path d="M517 516.199C517 516.466 517.933 516.999 519 517.533C520.067 517.933 521 517.666 521 516.999C521 516.199 520.067 515.666 519 515.666C517.933 515.666 517 515.933 517 516.199Z" fill="#D80027"/>
<path d="M525 516.867C525 517.4 528.333 517.934 532.333 517.934C536.467 517.934 540.067 517.4 540.467 516.867C540.867 516.2 537.533 515.667 533.133 515.667C528.6 515.667 525 516.2 525 516.867Z" fill="#D80027"/>
<path d="M240.734 517.934C241.667 518.334 242.867 518.201 243.267 517.801C243.8 517.401 243 517.001 241.534 517.134C240.067 517.134 239.667 517.534 240.734 517.934Z" fill="#D80027"/>
<path d="M382.334 518.333C382.334 518.999 383.534 519.666 385.001 519.666C386.467 519.666 387.667 518.999 387.667 518.333C387.667 517.533 386.467 516.999 385.001 516.999C383.534 516.999 382.334 517.533 382.334 518.333Z" fill="#D80027"/>
<path d="M221 612.733C217.4 613.933 220.334 615.4 226.734 615.4C230.467 615.533 240.334 615.8 248.334 616.066C262.467 616.6 270.867 615.533 266.334 613.933C264.2 613 223.134 612.066 221 612.733Z" fill="#D80027"/>
<path d="M475.666 613C475.666 614.867 486.599 616.067 490.333 614.467C492.199 613.8 493.133 613.134 492.333 613C481.933 611.934 475.666 611.934 475.666 613Z" fill="#D80027"/>
<path d="M501 613.001C501 613.667 501.533 614.334 502.2 614.334C503 614.334 503.933 613.667 504.333 613.001C504.733 612.201 504.2 611.667 503.133 611.667C501.933 611.667 501 612.201 501 613.001Z" fill="#D80027"/>
<path d="M202.333 614.333C200.6 615.399 200.6 615.666 202.6 615.666C203.8 615.666 205.266 614.999 205.666 614.333C206.733 612.599 205 612.599 202.333 614.333Z" fill="#D80027"/>
<path d="M461.4 613.933C462.6 614.199 464.467 614.199 465.4 613.933C466.2 613.533 465.267 613.266 463 613.266C460.867 613.266 460.067 613.533 461.4 613.933Z" fill="#D80027"/>
<path d="M495.399 613.933C496.199 614.199 497.799 614.199 498.733 613.933C499.533 613.533 498.866 613.266 496.999 613.266C495.133 613.266 494.466 613.533 495.399 613.933Z" fill="#D80027"/>
<path d="M534.733 613.8C535.133 614.2 553 615.134 574.466 615.667C603.8 616.467 614.066 616.467 615.666 615.267C617.533 614.067 608.6 613.667 575.933 613.4C552.866 613.267 534.333 613.4 534.733 613.8Z" fill="#D80027"/>
<path d="M688.733 613.933C689.533 614.199 691.133 614.199 692.067 613.933C692.867 613.533 692.2 613.266 690.333 613.266C688.467 613.266 687.8 613.533 688.733 613.933Z" fill="#D80027"/>
<path d="M716.734 613.934C717.667 614.334 718.867 614.201 719.267 613.801C719.8 613.401 719 613.001 717.534 613.134C716.067 613.134 715.667 613.534 716.734 613.934Z" fill="#D80027"/>
<path d="M286.067 615.266C287.001 615.666 288.201 615.533 288.601 615.133C289.134 614.733 288.334 614.333 286.867 614.466C285.401 614.466 285.001 614.866 286.067 615.266Z" fill="#D80027"/>
<path d="M295.666 614.867C295.666 616.201 299.399 616.601 301.133 615.534C302.466 614.734 302.066 614.334 299.399 614.334C297.266 614.334 295.666 614.601 295.666 614.867Z" fill="#D80027"/>
<path d="M318.067 616.601C318.867 616.867 320.467 616.867 321.401 616.601C322.201 616.201 321.534 615.934 319.667 615.934C317.801 615.934 317.134 616.201 318.067 616.601Z" fill="#D80027"/>
<path d="M388.333 640.066C385.4 641.133 380.466 643.133 377.4 644.733C370.2 648.466 369.8 648.466 358.6 643.666C350.733 640.333 347.4 639.666 338.6 639.666C320.733 639.666 309.133 644.199 279.666 662.333C260.866 673.933 247.666 681.533 237.133 687.133C233.133 689.266 229.666 691.666 229.4 692.599C229 693.399 232.333 696.333 236.6 699.133C249.933 707.533 264.333 720.466 279.533 737.533C306.733 768.199 322.2 777.266 352.866 780.999C369.666 783.133 398.066 780.733 409.8 776.333C422.333 771.666 430.466 765.533 476.066 727.133C481.8 722.333 487.533 718.333 488.733 718.199C489.933 718.066 499.4 718.066 509.666 718.199C519.933 718.333 531.4 717.799 535 716.999C538.733 716.333 544.066 715.266 547 714.733C551.933 713.933 551.4 713.799 541.666 712.866C535.8 712.333 522.733 712.066 512.6 712.333C491.666 712.866 491.933 713.399 505.8 702.066C510.466 698.333 514.333 694.466 514.333 693.533C514.333 692.733 511 690.599 507 688.999C498.6 685.666 477.133 673.399 449.8 656.466C439.666 650.199 427.933 643.799 423.8 642.199C414.466 638.599 396.066 637.533 388.333 640.066ZM355.133 698.333C365.266 701.799 374.2 701.666 386.733 697.666C400.466 693.266 406.2 693.533 427.533 698.999C437.4 701.533 445.666 703.666 445.933 703.666C447.4 703.666 445.933 706.199 444.066 706.733C442.733 707.133 437.133 708.999 431.666 710.999C410.733 718.333 398.6 720.199 370.333 720.199C348.466 720.199 342.066 719.666 330.333 717.133C315.666 714.066 294.333 707.666 294.333 706.333C294.333 705.533 323.266 696.199 329 695.133C334.733 694.066 347.266 695.666 355.133 698.333Z" fill="#D80027"/>
<path d="M84.334 713.001C84.734 713.667 85.6673 714.334 86.4673 714.334C87.134 714.334 87.6673 713.667 87.6673 713.001C87.6673 712.201 86.734 711.667 85.534 711.667C84.4673 711.667 83.934 712.201 84.334 713.001Z" fill="#D80027"/>
<path d="M90.3334 713.001C93.0001 714.734 100.067 714.734 99.0001 713.001C98.6001 712.201 95.9334 711.667 93.2667 711.667C89.5334 711.667 88.8667 712.067 90.3334 713.001Z" fill="#D80027"/>
<path d="M182.067 713.933C183.667 714.199 186.334 714.199 188.067 713.933C189.667 713.666 188.334 713.399 185.001 713.399C181.667 713.399 180.334 713.666 182.067 713.933Z" fill="#D80027"/>
<path d="M201.666 714.333C211.666 715.933 228.733 715.933 226.333 714.333C225.266 713.667 217.799 713.133 209.666 713.133C197.533 713.267 196.066 713.533 201.666 714.333Z" fill="#D80027"/>
<path d="M554.333 714.333C556.866 716.066 558.333 716.066 558.333 714.333C558.333 713.533 556.999 712.999 555.399 712.999C552.866 712.999 552.733 713.266 554.333 714.333Z" fill="#D80027"/>
</g>
<defs>
<clipPath id="clip0_1518_2">
<rect width="740" height="782" fill="white"/>
</clipPath>
</defs>
</svg>
